<svg width="40" height="40" viewBox="0 0 40 40" fill="none" xmlns="http://www.w3.org/2000/svg">
<g id="envelope-solid 2">
<path id="Vector" d="M36.25 5C38.3203 5 40 6.67969 40 8.75C40 9.92969 39.4453 11.0391 38.5 11.75L21.5 24.5C20.6094 25.1641 19.3906 25.1641 18.5 24.5L1.5 11.75C0.554688 11.0391 0 9.92969 0 8.75C0 6.67969 1.67969 5 3.75 5H36.25ZM40 13.75V30C40 32.7578 37.7578 35 35 35H5C2.24219 35 0 32.7578 0 30V13.75L17 26.5C18.7812 27.8359 21.2188 27.8359 23 26.5L40 13.75Z" fill="#EFEBE2"/>
</g>
</svg>
